# xmcd
#
# Track frame offsets:
#	150
#	13397
#	26602
#	38945
#	51002
#	66032
#	76112
#	87017
#	97392
#	108355
#	123222
#	137632
#	148770
#	161892
#	176360
#	189672
#	201267
#	209230
#	226232
#	233917
#
# Disc length: 3282 seconds
#
# Revision: 1
# Processed by: cddbd v1.5.1PL0 Copyright (c) Steve Scherf et al.
# Submitted via: CDex 1.50Beta5
#
DISCID=1e0cd014
DTITLE=Various Artist - みんなでメリークリスマス
DYEAR=1900
DGENRE=(Doyo)
TTITLE0=ジングルベル
TTITLE1=赤鼻のトナカイ
TTITLE2=サンタが町にやってくる
TTITLE3=サンタクロースがやってくる
TTITLE4=あわてんぼうのサンタクロース
TTITLE5=さあ かざりましょう
TTITLE6=もみの木
TTITLE7=おめでとうクリスマス
TTITLE8=シルヴァー・ベル
TTITLE9=リトル・ドラマー・ボーイ
TTITLE10=きよし この夜
TTITLE11=もろびとこぞりて
TTITLE12=たのしいクリスマスの鐘
TTITLE13=ママがサンタにキッスした
TTITLE14=とんできたサンタクロース
TTITLE15=前歯のない子のクリスマス
TTITLE16=屋根の上で
TTITLE17=ホワイト・クリスマス
TTITLE18=風も雪も友達だ
TTITLE19=すてきな雪景色
EXTD=
EXTT0=
EXTT1=
EXTT2=
EXTT3=
EXTT4=
EXTT5=
EXTT6=
EXTT7=
EXTT8=
EXTT9=
EXTT10=
EXTT11=
EXTT12=
EXTT13=
EXTT14=
EXTT15=
EXTT16=
EXTT17=
EXTT18=
EXTT19=
PLAYORDER=
